<?xml version="1.0" encoding="utf-8"?>
<!-- Generated by IcoMoon.io -->
<!DOCTYPE svg PUBLIC "-//W3C//DTD SVG 1.1//EN" "http://www.w3.org/Graphics/SVG/1.1/DTD/svg11.dtd">
<svg version="1.1" xmlns="http://www.w3.org/2000/svg" xmlns:xlink="http://www.w3.org/1999/xlink" width="512" height="512" viewBox="0 0 512 512">
<g>
</g>
	<path d="M74.966 437.013c-99.97-99.97-99.97-262.066 0-362.037 100.002-99.97 262.067-99.97 362.068 0 99.97 99.971 99.97 262.067 0 362.037-100.001 99.985-262.066 99.985-362.068 0zM391.783 120.227c-75.001-74.985-196.565-74.985-271.535 0-75.001 74.985-75.001 196.55 0 271.535 74.97 74.986 196.534 74.986 271.535 0 74.971-74.986 74.971-196.55 0-271.535zM188.124 369.137l-45.251-45.266 67.876-67.877-67.876-67.876 45.251-45.267 67.876 67.892 67.877-67.892 45.25 45.267-67.876 67.876 67.876 67.877-45.25 45.266-67.877-67.892-67.876 67.892z" fill="#000000" />
</svg>
