<?xml version="1.0" encoding="iso-8859-1"?>
<!-- Generator: Adobe Illustrator 18.0.0, SVG Export Plug-In . SVG Version: 6.00 Build 0)  -->
<!DOCTYPE svg PUBLIC "-//W3C//DTD SVG 1.1//EN" "http://www.w3.org/Graphics/SVG/1.1/DTD/svg11.dtd">
<svg version="1.1" id="Capa_1" xmlns="http://www.w3.org/2000/svg" xmlns:xlink="http://www.w3.org/1999/xlink" x="0px" y="0px"
	 viewBox="0 0 249.636 249.636" style="enable-background:new 0 0 249.636 249.636;" xml:space="preserve">
<g>
	<path d="M124.818,50.173c13.832,0,25.086-11.254,25.086-25.087C149.904,11.254,138.65,0,124.818,0
		c-13.833,0-25.087,11.254-25.087,25.086C99.731,38.919,110.985,50.173,124.818,50.173z M124.818,15
		c5.562,0,10.086,4.525,10.086,10.086c0,5.562-4.524,10.087-10.086,10.087s-10.087-4.525-10.087-10.087
		C114.731,19.525,119.257,15,124.818,15z"/>
	<path d="M105.121,178.307c0.468,3.754,3.659,6.572,7.442,6.572h24.348c3.779,0,6.969-2.812,7.441-6.562l13.494-107.053
		c0.57-4.525-0.832-9.083-3.849-12.504c-3.018-3.421-7.363-5.384-11.925-5.384h-34.525c-4.558,0-8.9,1.959-11.917,5.375
		s-4.423,7.969-3.859,12.491L105.121,178.307z M106.874,68.68c0.179-0.202,0.405-0.304,0.674-0.304h34.525
		c0.269,0,0.495,0.103,0.674,0.304c0.178,0.202,0.251,0.439,0.217,0.707l-12.667,100.492h-11.11l-12.53-100.493
		C106.623,69.119,106.696,68.881,106.874,68.68z"/>
	<path d="M240.04,167.393c-8.074-11.667-22.773-21.568-42.592-28.75c-2.891,4.245-5.889,8.458-8.948,12.609
		c0.407,0.231,0.838,0.431,1.297,0.588c17.928,6.116,31.391,14.67,37.909,24.088c5.679,8.208,5.679,16.531,0,24.738
		c-6.519,9.418-19.981,17.973-37.909,24.088c-18.68,6.372-41.756,9.881-64.979,9.881s-46.299-3.509-64.979-9.881
		c-17.928-6.115-31.391-14.67-37.909-24.088c-5.679-8.208-5.679-16.531,0-24.738c6.519-9.418,19.981-17.973,37.909-24.089
		c0.459-0.156,0.89-0.356,1.297-0.588c-3.059-4.151-6.057-8.364-8.948-12.609c-19.819,7.181-34.518,17.083-42.592,28.75
		c-9.193,13.285-9.193,28.523,0,41.809c8.453,12.214,24.152,22.501,45.401,29.75c20.49,6.989,44.634,10.684,69.82,10.684
		s49.33-3.694,69.82-10.684c21.249-7.249,36.948-17.536,45.401-29.75C249.233,195.917,249.233,180.678,240.04,167.393z"/>
	<path d="M44.658,174.205c-6.813,7.898-6.813,17.329,0,25.228c5.926,6.871,16.866,12.64,31.638,16.683
		c13.559,3.711,29.427,5.751,46.036,5.936c0.828,0.009,1.656,0.018,2.487,0.018s1.659-0.009,2.487-0.018
		c16.609-0.186,32.477-2.226,46.036-5.936c14.771-4.043,25.712-9.812,31.638-16.683c6.813-7.898,6.813-17.329,0-25.228
		c-4.734-5.489-12.677-10.272-23.209-14.037c-2.181,2.824-4.374,5.603-6.565,8.332c10.408,3.321,18.203,7.599,22.203,12.236
		c3.628,4.207,3.628,7.958,0,12.165c-4.558,5.284-14.041,10.103-26.706,13.569c-9.809,2.685-21.333,4.471-33.335,5.211
		c-4.143,0.256-8.341,0.389-12.547,0.389s-8.404-0.133-12.547-0.389c-12.002-0.741-23.526-2.527-33.335-5.211
		c-12.665-3.466-22.148-8.285-26.706-13.569c-3.628-4.207-3.628-7.958,0-12.165c4-4.637,11.794-8.915,22.203-12.236
		c-2.191-2.728-4.384-5.508-6.565-8.332C57.335,163.933,49.392,168.716,44.658,174.205z"/>
</g>
<g>
</g>
<g>
</g>
<g>
</g>
<g>
</g>
<g>
</g>
<g>
</g>
<g>
</g>
<g>
</g>
<g>
</g>
<g>
</g>
<g>
</g>
<g>
</g>
<g>
</g>
<g>
</g>
<g>
</g>
</svg>
