<svg height="682pt" viewBox="-21 -69 682.66542 682" width="682pt" xmlns="http://www.w3.org/2000/svg"><path d="m472.847656 540.714844c16.289063 0 16.316406-25.375 0-25.375h-257.085937v-128.203125l369.429687 59.242187 24.230469 68.960938h-34.335937c-16.292969 0-16.3125 25.371094 0 25.371094h52.242187c8.585937 0 14.824219-8.769532 11.972656-16.890626l-89.035156-253.398437c-1.78125-5.082031-6.582031-8.480469-11.96875-8.480469h-93.40625c14.449219-18.507812 26.558594-38.761718 34.160156-61.113281 20.429688-60.054687.3125-134.476563-46.792969-173.117187-24.070312-19.75-54.710937-30.628907-86.273437-30.628907-31.558594 0-62.195313 10.878907-86.273437 30.628907-45.996094 37.730468-66.585938 107.332031-48.960938 165.496093 7.542969 24.890625 20.875 47.6875 37.347656 68.734375h-144.6875c-5.355468 0-10.136718 3.363282-11.941406 8.40625l-90.742188 253.398438c-2.914062 8.128906 3.320313 16.96875 11.941407 16.96875zm-197.042968-493.382813c19.554687-16.039062 44.476562-24.875 70.183593-24.875 25.703125 0 50.628907 8.835938 70.179688 24.875 19.070312 15.640625 33.488281 39.261719 40.597656 66.523438 7.015625 26.894531 6.402344 54.878906-1.734375 78.796875-18.144531 53.332031-65.738281 93.917968-109.039062 129.652344-45.84375-38.019532-94.71875-82.875-110.960938-136.457032-14.535156-47.972656 2.988281-107.523437 40.773438-138.515625zm58.792968 298.480469c8.128906 6.683594 14.550782 6.773438 22.789063-.011719 20.957031-17.273437 44.316406-36.527343 65.398437-58.488281h106.519532l46.324218 131.828125-359.867187-57.707031v-74.121094h54.34375c20.195312 21.273438 42.808593 40.632812 64.492187 58.5 3.449219 2.832031-21.683594-17.867188 0 0zm-222.25-58.5h78.035156v70.050781l-97.523437-15.636719zm78.035156 95.75v132.277344h-159.695312l53.472656-149.308594zm0 0"/><path d="m424.203125 138.140625c0-43.128906-35.089844-78.214844-78.21875-78.214844-43.125 0-78.210937 35.085938-78.210937 78.214844 0 43.132813 35.085937 78.21875 78.210937 78.21875 43.128906 0 78.21875-35.085937 78.21875-78.21875zm-131.058594 0c0-29.132813 23.703125-52.839844 52.839844-52.839844 29.140625 0 52.839844 23.707031 52.839844 52.839844 0 29.136719-23.699219 52.84375-52.839844 52.84375-29.136719.003906-52.839844-23.703125-52.839844-52.84375zm0 0"/><path d="m524.230469 515.339844c-6.894531 0-12.683594 5.789062-12.683594 12.6875 0 6.894531 5.792969 12.6875 12.683594 12.6875 6.695312 0 12.363281-5.453125 12.660156-12.132813.320313-7.101562-5.539063-13.242187-12.660156-13.242187zm0 0"/></svg>