<?xml version="1.0" encoding="iso-8859-1"?>
<!-- Generator: Adobe Illustrator 19.0.0, SVG Export Plug-In . SVG Version: 6.00 Build 0)  -->
<svg version="1.1" id="Capa_1" xmlns="http://www.w3.org/2000/svg" xmlns:xlink="http://www.w3.org/1999/xlink" x="0px" y="0px"
	 viewBox="0 0 512 512" style="enable-background:new 0 0 512 512;" xml:space="preserve">
<g>
	<g>
		<g>
			<polygon points="336,47.68 176,15.68 0,50.88 0,499.52 176,464.32 336.384,496.4 403.872,479.52 396.128,448.48 335.616,463.6 
				176,431.68 32,460.48 32,77.12 176,48.32 336,80.32 480,51.52 480,256 512,256 512,12.48 			"/>
			<rect x="480" y="352" width="32" height="32"/>
			<rect x="480" y="288" width="32" height="32"/>
			<path d="M334.4,147.28c-56.166-56.392-147.413-56.575-203.805-0.409s-56.575,147.413-0.409,203.805
				c54.441,54.66,142.271,56.753,199.254,4.748l155.04,140.08l21.44-23.744L350.576,331.408
				C390.437,274.2,383.625,196.661,334.4,147.28z M123.008,272c-12.741-60.439,25.927-119.763,86.366-132.504
				c24.457-5.155,49.935-1.97,72.37,9.048L199.44,272H123.008z M311.728,328.288h0.08c-43.45,43.765-114.151,44.02-157.916,0.57
				c-7.416-7.363-13.762-15.731-18.852-24.858h194.992C325.072,312.896,318.913,321.069,311.728,328.288z M342.08,272H237.888
				l70.256-105.36c1.184,1.088,2.432,2.112,3.584,3.2C338.437,196.589,349.851,235.007,342.08,272z"/>
		</g>
	</g>
</g>
<g>
</g>
<g>
</g>
<g>
</g>
<g>
</g>
<g>
</g>
<g>
</g>
<g>
</g>
<g>
</g>
<g>
</g>
<g>
</g>
<g>
</g>
<g>
</g>
<g>
</g>
<g>
</g>
<g>
</g>
</svg>
